<svg width="73" height="36" viewBox="0 0 73 36" fill="none" xmlns="http://www.w3.org/2000/svg">
<path d="M21.04 15.52C21.2107 16.2027 21.296 17.056 21.296 18.08C21.296 19.0613 21.2107 19.9147 21.04 20.64H15.92C15.7493 19.9147 15.664 19.0613 15.664 18.08C15.664 17.056 15.7493 16.2027 15.92 15.52H13.36C13.1893 14.7947 13.104 13.9413 13.104 12.96C13.104 11.936 13.1893 11.0827 13.36 10.4H8.24C8.41067 11.0827 8.496 11.936 8.496 12.96C8.496 13.9413 8.41067 14.7947 8.24 15.52H5.68C5.85067 16.2027 5.936 17.056 5.936 18.08C5.936 19.0613 5.85067 19.9147 5.68 20.64H0.56C0.389333 19.9147 0.304 19.0613 0.304 18.08C0.304 17.056 0.389333 16.2027 0.56 15.52H3.12C2.94933 14.7947 2.864 13.9413 2.864 12.96C2.864 11.936 2.94933 11.0827 3.12 10.4H5.68C5.50933 9.67467 5.424 8.82133 5.424 7.84C5.424 6.816 5.50933 5.96267 5.68 5.28H8.24C8.06933 4.55467 7.984 3.70133 7.984 2.72C7.984 1.696 8.06933 0.842665 8.24 0.16H13.36C13.5307 0.842665 13.616 1.696 13.616 2.72C13.616 3.70133 13.5307 4.55467 13.36 5.28H15.92C16.0907 5.96267 16.176 6.816 16.176 7.84C16.176 8.82133 16.0907 9.67467 15.92 10.4H18.48C18.6507 11.0827 18.736 11.936 18.736 12.96C18.736 13.9413 18.6507 14.7947 18.48 15.52H21.04ZM39.881 28.32C39.881 29.3013 39.7957 30.1547 39.625 30.88C39.7957 31.5627 39.881 32.416 39.881 33.44C39.881 34.4213 39.7957 35.2747 39.625 36H33.225C33.0543 35.2747 32.969 34.4213 32.969 33.44C32.969 32.416 33.0543 31.5627 33.225 30.88C33.0543 30.1547 32.969 29.3013 32.969 28.32C32.969 27.296 33.0543 26.4427 33.225 25.76H39.625C39.7957 26.4427 39.881 27.296 39.881 28.32ZM72.29 15.52C72.4607 16.2027 72.546 17.056 72.546 18.08C72.546 19.0613 72.4607 19.9147 72.29 20.64H67.17C66.9993 19.9147 66.914 19.0613 66.914 18.08C66.914 17.056 66.9993 16.2027 67.17 15.52H64.61C64.4393 14.7947 64.354 13.9413 64.354 12.96C64.354 11.936 64.4393 11.0827 64.61 10.4H59.49C59.6607 11.0827 59.746 11.936 59.746 12.96C59.746 13.9413 59.6607 14.7947 59.49 15.52H56.93C57.1007 16.2027 57.186 17.056 57.186 18.08C57.186 19.0613 57.1007 19.9147 56.93 20.64H51.81C51.6393 19.9147 51.554 19.0613 51.554 18.08C51.554 17.056 51.6393 16.2027 51.81 15.52H54.37C54.1993 14.7947 54.114 13.9413 54.114 12.96C54.114 11.936 54.1993 11.0827 54.37 10.4H56.93C56.7593 9.67467 56.674 8.82133 56.674 7.84C56.674 6.816 56.7593 5.96267 56.93 5.28H59.49C59.3193 4.55467 59.234 3.70133 59.234 2.72C59.234 1.696 59.3193 0.842665 59.49 0.16H64.61C64.7807 0.842665 64.866 1.696 64.866 2.72C64.866 3.70133 64.7807 4.55467 64.61 5.28H67.17C67.3407 5.96267 67.426 6.816 67.426 7.84C67.426 8.82133 67.3407 9.67467 67.17 10.4H69.73C69.9007 11.0827 69.986 11.936 69.986 12.96C69.986 13.9413 69.9007 14.7947 69.73 15.52H72.29Z" fill="#DF557E"/>
</svg>
