<svg width="506" height="36" viewBox="0 0 506 36" fill="none" xmlns="http://www.w3.org/2000/svg">
<path d="M21.04 20.64C21.2107 21.3227 21.296 22.176 21.296 23.2C21.296 24.1813 21.2107 25.0347 21.04 25.76C21.2107 26.4427 21.296 27.296 21.296 28.32C21.296 29.3013 21.2107 30.1547 21.04 30.88H18.48C18.6507 31.5627 18.736 32.416 18.736 33.44C18.736 34.4213 18.6507 35.2747 18.48 36H3.12C2.94933 35.2747 2.864 34.4213 2.864 33.44C2.864 32.416 2.94933 31.5627 3.12 30.88H0.56C0.389333 30.1547 0.304 29.3013 0.304 28.32C0.304 27.296 0.389333 26.4427 0.56 25.76H5.68C5.85067 26.4427 5.936 27.296 5.936 28.32C5.936 29.3013 5.85067 30.1547 5.68 30.88H15.92C15.7493 30.1547 15.664 29.3013 15.664 28.32C15.664 27.296 15.7493 26.4427 15.92 25.76C15.7493 25.0347 15.664 24.1813 15.664 23.2C15.664 22.176 15.7493 21.3227 15.92 20.64H3.12C2.94933 19.9147 2.864 19.0613 2.864 18.08C2.864 17.056 2.94933 16.2027 3.12 15.52H0.56C0.389333 14.7947 0.304 13.9413 0.304 12.96C0.304 11.936 0.389333 11.0827 0.56 10.4C0.389333 9.67467 0.304 8.82133 0.304 7.84C0.304 6.816 0.389333 5.96267 0.56 5.28H3.12C2.94933 4.55467 2.864 3.70133 2.864 2.72C2.864 1.696 2.94933 0.842665 3.12 0.16H18.48C18.6507 0.842665 18.736 1.696 18.736 2.72C18.736 3.70133 18.6507 4.55467 18.48 5.28H21.04C21.2107 5.96267 21.296 6.816 21.296 7.84C21.296 8.82133 21.2107 9.67467 21.04 10.4H15.92C15.7493 9.67467 15.664 8.82133 15.664 7.84C15.664 6.816 15.7493 5.96267 15.92 5.28H5.68C5.85067 5.96267 5.936 6.816 5.936 7.84C5.936 8.82133 5.85067 9.67467 5.68 10.4C5.85067 11.0827 5.936 11.936 5.936 12.96C5.936 13.9413 5.85067 14.7947 5.68 15.52H18.48C18.6507 16.2027 18.736 17.056 18.736 18.08C18.736 19.0613 18.6507 19.9147 18.48 20.64H21.04ZM33.865 5.28C33.6943 4.55467 33.609 3.70133 33.609 2.72C33.609 1.696 33.6943 0.842665 33.865 0.16H38.985C39.1557 0.842665 39.241 1.696 39.241 2.72C39.241 3.70133 39.1557 4.55467 38.985 5.28H33.865ZM44.105 30.88C44.2757 31.5627 44.361 32.416 44.361 33.44C44.361 34.4213 44.2757 35.2747 44.105 36H28.745C28.5743 35.2747 28.489 34.4213 28.489 33.44C28.489 32.416 28.5743 31.5627 28.745 30.88H33.865C33.6943 30.1547 33.609 29.3013 33.609 28.32C33.609 27.296 33.6943 26.4427 33.865 25.76C33.6943 25.0347 33.609 24.1813 33.609 23.2C33.609 22.176 33.6943 21.3227 33.865 20.64C33.6943 19.9147 33.609 19.0613 33.609 18.08C33.609 17.056 33.6943 16.2027 33.865 15.52H30.025C29.8543 14.7947 29.769 13.9413 29.769 12.96C29.769 11.936 29.8543 11.0827 30.025 10.4H38.985C39.1557 11.0827 39.241 11.936 39.241 12.96C39.241 13.9413 39.1557 14.7947 38.985 15.52C39.1557 16.2027 39.241 17.056 39.241 18.08C39.241 19.0613 39.1557 19.9147 38.985 20.64C39.1557 21.3227 39.241 22.176 39.241 23.2C39.241 24.1813 39.1557 25.0347 38.985 25.76C39.1557 26.4427 39.241 27.296 39.241 28.32C39.241 29.3013 39.1557 30.1547 38.985 30.88H44.105ZM55.266 12.96C55.266 13.9413 55.1807 14.7947 55.01 15.52H56.93C57.1007 16.2027 57.186 17.056 57.186 18.08C57.186 19.0613 57.1007 19.9147 56.93 20.64C57.1007 21.3227 57.186 22.176 57.186 23.2C57.186 24.1813 57.1007 25.0347 56.93 25.76C57.1007 26.4427 57.186 27.296 57.186 28.32C57.186 29.3013 57.1007 30.1547 56.93 30.88C57.1007 31.5627 57.186 32.416 57.186 33.44C57.186 34.4213 57.1007 35.2747 56.93 36H51.81C51.6393 35.2747 51.554 34.4213 51.554 33.44C51.554 32.416 51.6393 31.5627 51.81 30.88C51.6393 30.1547 51.554 29.3013 51.554 28.32C51.554 27.296 51.6393 26.4427 51.81 25.76C51.6393 25.0347 51.554 24.1813 51.554 23.2C51.554 22.176 51.6393 21.3227 51.81 20.64C51.6393 19.9147 51.554 19.0613 51.554 18.08C51.554 17.056 51.6393 16.2027 51.81 15.52C51.6393 14.7947 51.554 13.9413 51.554 12.96C51.554 11.936 51.6393 11.0827 51.81 10.4H55.01C55.1807 11.0827 55.266 11.936 55.266 12.96ZM62.306 12.96C62.306 13.9413 62.2207 14.7947 62.05 15.52H63.97C64.1407 16.2027 64.226 17.056 64.226 18.08C64.226 19.0613 64.1407 19.9147 63.97 20.64C64.1407 21.3227 64.226 22.176 64.226 23.2C64.226 24.1813 64.1407 25.0347 63.97 25.76C64.1407 26.4427 64.226 27.296 64.226 28.32C64.226 29.3013 64.1407 30.1547 63.97 30.88C64.1407 31.5627 64.226 32.416 64.226 33.44C64.226 34.4213 64.1407 35.2747 63.97 36H60.13C59.9593 35.2747 59.874 34.4213 59.874 33.44C59.874 32.416 59.9593 31.5627 60.13 30.88C59.9593 30.1547 59.874 29.3013 59.874 28.32C59.874 27.296 59.9593 26.4427 60.13 25.76C59.9593 25.0347 59.874 24.1813 59.874 23.2C59.874 22.176 59.9593 21.3227 60.13 20.64C59.9593 19.9147 59.874 19.0613 59.874 18.08C59.874 17.056 59.9593 16.2027 60.13 15.52H56.93C56.7593 14.7947 56.674 13.9413 56.674 12.96C56.674 11.936 56.7593 11.0827 56.93 10.4H62.05C62.2207 11.0827 62.306 11.936 62.306 12.96ZM72.29 20.64C72.4607 21.3227 72.546 22.176 72.546 23.2C72.546 24.1813 72.4607 25.0347 72.29 25.76C72.4607 26.4427 72.546 27.296 72.546 28.32C72.546 29.3013 72.4607 30.1547 72.29 30.88C72.4607 31.5627 72.546 32.416 72.546 33.44C72.546 34.4213 72.4607 35.2747 72.29 36H67.17C66.9993 35.2747 66.914 34.4213 66.914 33.44C66.914 32.416 66.9993 31.5627 67.17 30.88C66.9993 30.1547 66.914 29.3013 66.914 28.32C66.914 27.296 66.9993 26.4427 67.17 25.76C66.9993 25.0347 66.914 24.1813 66.914 23.2C66.914 22.176 66.9993 21.3227 67.17 20.64C66.9993 19.9147 66.914 19.0613 66.914 18.08C66.914 17.056 66.9993 16.2027 67.17 15.52H63.97C63.7993 14.7947 63.714 13.9413 63.714 12.96C63.714 11.936 63.7993 11.0827 63.97 10.4H69.73C69.9007 11.0827 69.986 11.936 69.986 12.96C69.986 13.9413 69.9007 14.7947 69.73 15.52H72.29C72.4607 16.2027 72.546 17.056 72.546 18.08C72.546 19.0613 72.4607 19.9147 72.29 20.64ZM97.915 15.52C98.0857 16.2027 98.171 17.056 98.171 18.08C98.171 19.0613 98.0857 19.9147 97.915 20.64H92.795C92.6243 19.9147 92.539 19.0613 92.539 18.08C92.539 17.056 92.6243 16.2027 92.795 15.52H88.315C88.4857 16.2027 88.571 17.056 88.571 18.08C88.571 19.0613 88.4857 19.9147 88.315 20.64H86.395C86.5657 21.3227 86.651 22.176 86.651 23.2C86.651 24.1813 86.5657 25.0347 86.395 25.76C86.5657 26.4427 86.651 27.296 86.651 28.32C86.651 29.3013 86.5657 30.1547 86.395 30.88H90.235C90.4057 31.5627 90.491 32.416 90.491 33.44C90.491 34.4213 90.4057 35.2747 90.235 36H77.435C77.2643 35.2747 77.179 34.4213 77.179 33.44C77.179 32.416 77.2643 31.5627 77.435 30.88H81.275C81.1043 30.1547 81.019 29.3013 81.019 28.32C81.019 27.296 81.1043 26.4427 81.275 25.76C81.1043 25.0347 81.019 24.1813 81.019 23.2C81.019 22.176 81.1043 21.3227 81.275 20.64C81.1043 19.9147 81.019 19.0613 81.019 18.08C81.019 17.056 81.1043 16.2027 81.275 15.52H77.435C77.2643 14.7947 77.179 13.9413 77.179 12.96C77.179 11.936 77.2643 11.0827 77.435 10.4H83.835C84.0057 11.0827 84.091 11.936 84.091 12.96C84.091 13.9413 84.0057 14.7947 83.835 15.52H86.395C86.2243 14.7947 86.139 13.9413 86.139 12.96C86.139 11.936 86.2243 11.0827 86.395 10.4H95.995C96.1657 11.0827 96.251 11.936 96.251 12.96C96.251 13.9413 96.1657 14.7947 95.995 15.52H97.915ZM123.54 30.88C123.711 31.5627 123.796 32.416 123.796 33.44C123.796 34.4213 123.711 35.2747 123.54 36H118.42C118.249 35.2747 118.164 34.4213 118.164 33.44C118.164 32.416 118.249 31.5627 118.42 30.88H115.86C115.689 30.1547 115.604 29.3013 115.604 28.32C115.604 27.296 115.689 26.4427 115.86 25.76H108.18C108.351 26.4427 108.436 27.296 108.436 28.32C108.436 29.3013 108.351 30.1547 108.18 30.88H115.86C116.031 31.5627 116.116 32.416 116.116 33.44C116.116 34.4213 116.031 35.2747 115.86 36H105.62C105.449 35.2747 105.364 34.4213 105.364 33.44C105.364 32.416 105.449 31.5627 105.62 30.88H103.06C102.889 30.1547 102.804 29.3013 102.804 28.32C102.804 27.296 102.889 26.4427 103.06 25.76H105.62C105.449 25.0347 105.364 24.1813 105.364 23.2C105.364 22.176 105.449 21.3227 105.62 20.64H115.86C115.689 19.9147 115.604 19.0613 115.604 18.08C115.604 17.056 115.689 16.2027 115.86 15.52H106.9C106.729 14.7947 106.644 13.9413 106.644 12.96C106.644 11.936 106.729 11.0827 106.9 10.4H118.42C118.591 11.0827 118.676 11.936 118.676 12.96C118.676 13.9413 118.591 14.7947 118.42 15.52H120.98C121.151 16.2027 121.236 17.056 121.236 18.08C121.236 19.0613 121.151 19.9147 120.98 20.64C121.151 21.3227 121.236 22.176 121.236 23.2C121.236 24.1813 121.151 25.0347 120.98 25.76C121.151 26.4427 121.236 27.296 121.236 28.32C121.236 29.3013 121.151 30.1547 120.98 30.88H123.54ZM133.421 12.96C133.421 13.9413 133.336 14.7947 133.165 15.52H135.725C135.896 16.2027 135.981 17.056 135.981 18.08C135.981 19.0613 135.896 19.9147 135.725 20.64H133.805C133.976 21.3227 134.061 22.176 134.061 23.2C134.061 24.1813 133.976 25.0347 133.805 25.76C133.976 26.4427 134.061 27.296 134.061 28.32C134.061 29.3013 133.976 30.1547 133.805 30.88C133.976 31.5627 134.061 32.416 134.061 33.44C134.061 34.4213 133.976 35.2747 133.805 36H128.685C128.514 35.2747 128.429 34.4213 128.429 33.44C128.429 32.416 128.514 31.5627 128.685 30.88C128.514 30.1547 128.429 29.3013 128.429 28.32C128.429 27.296 128.514 26.4427 128.685 25.76C128.514 25.0347 128.429 24.1813 128.429 23.2C128.429 22.176 128.514 21.3227 128.685 20.64C128.514 19.9147 128.429 19.0613 128.429 18.08C128.429 17.056 128.514 16.2027 128.685 15.52C128.514 14.7947 128.429 13.9413 128.429 12.96C128.429 11.936 128.514 11.0827 128.685 10.4H133.165C133.336 11.0827 133.421 11.936 133.421 12.96ZM149.165 20.64C149.336 21.3227 149.421 22.176 149.421 23.2C149.421 24.1813 149.336 25.0347 149.165 25.76C149.336 26.4427 149.421 27.296 149.421 28.32C149.421 29.3013 149.336 30.1547 149.165 30.88C149.336 31.5627 149.421 32.416 149.421 33.44C149.421 34.4213 149.336 35.2747 149.165 36H144.045C143.874 35.2747 143.789 34.4213 143.789 33.44C143.789 32.416 143.874 31.5627 144.045 30.88C143.874 30.1547 143.789 29.3013 143.789 28.32C143.789 27.296 143.874 26.4427 144.045 25.76C143.874 25.0347 143.789 24.1813 143.789 23.2C143.789 22.176 143.874 21.3227 144.045 20.64C143.874 19.9147 143.789 19.0613 143.789 18.08C143.789 17.056 143.874 16.2027 144.045 15.52H135.725C135.554 14.7947 135.469 13.9413 135.469 12.96C135.469 11.936 135.554 11.0827 135.725 10.4H145.965C146.136 11.0827 146.221 11.936 146.221 12.96C146.221 13.9413 146.136 14.7947 145.965 15.52H149.165C149.336 16.2027 149.421 17.056 149.421 18.08C149.421 19.0613 149.336 19.9147 149.165 20.64ZM200.415 30.88C200.586 31.5627 200.671 32.416 200.671 33.44C200.671 34.4213 200.586 35.2747 200.415 36H195.295C195.124 35.2747 195.039 34.4213 195.039 33.44C195.039 32.416 195.124 31.5627 195.295 30.88H193.375C193.204 30.1547 193.119 29.3013 193.119 28.32C193.119 27.296 193.204 26.4427 193.375 25.76H189.535C189.364 25.0347 189.279 24.1813 189.279 23.2C189.279 22.176 189.364 21.3227 189.535 20.64H185.055C185.226 21.3227 185.311 22.176 185.311 23.2C185.311 24.1813 185.226 25.0347 185.055 25.76C185.226 26.4427 185.311 27.296 185.311 28.32C185.311 29.3013 185.226 30.1547 185.055 30.88C185.226 31.5627 185.311 32.416 185.311 33.44C185.311 34.4213 185.226 35.2747 185.055 36H179.935C179.764 35.2747 179.679 34.4213 179.679 33.44C179.679 32.416 179.764 31.5627 179.935 30.88C179.764 30.1547 179.679 29.3013 179.679 28.32C179.679 27.296 179.764 26.4427 179.935 25.76C179.764 25.0347 179.679 24.1813 179.679 23.2C179.679 22.176 179.764 21.3227 179.935 20.64C179.764 19.9147 179.679 19.0613 179.679 18.08C179.679 17.056 179.764 16.2027 179.935 15.52C179.764 14.7947 179.679 13.9413 179.679 12.96C179.679 11.936 179.764 11.0827 179.935 10.4C179.764 9.67467 179.679 8.82133 179.679 7.84C179.679 6.816 179.764 5.96267 179.935 5.28C179.764 4.55467 179.679 3.70133 179.679 2.72C179.679 1.696 179.764 0.842665 179.935 0.16H185.055C185.226 0.842665 185.311 1.696 185.311 2.72C185.311 3.70133 185.226 4.55467 185.055 5.28C185.226 5.96267 185.311 6.816 185.311 7.84C185.311 8.82133 185.226 9.67467 185.055 10.4C185.226 11.0827 185.311 11.936 185.311 12.96C185.311 13.9413 185.226 14.7947 185.055 15.52H189.535C189.364 14.7947 189.279 13.9413 189.279 12.96C189.279 11.936 189.364 11.0827 189.535 10.4H193.375C193.204 9.67467 193.119 8.82133 193.119 7.84C193.119 6.816 193.204 5.96267 193.375 5.28H195.295C195.124 4.55467 195.039 3.70133 195.039 2.72C195.039 1.696 195.124 0.842665 195.295 0.16H200.415C200.586 0.842665 200.671 1.696 200.671 2.72C200.671 3.70133 200.586 4.55467 200.415 5.28H198.495C198.666 5.96267 198.751 6.816 198.751 7.84C198.751 8.82133 198.666 9.67467 198.495 10.4H194.655C194.826 11.0827 194.911 11.936 194.911 12.96C194.911 13.9413 194.826 14.7947 194.655 15.52H191.455C191.626 16.2027 191.711 17.056 191.711 18.08C191.711 19.0613 191.626 19.9147 191.455 20.64H194.655C194.826 21.3227 194.911 22.176 194.911 23.2C194.911 24.1813 194.826 25.0347 194.655 25.76H198.495C198.666 26.4427 198.751 27.296 198.751 28.32C198.751 29.3013 198.666 30.1547 198.495 30.88H200.415ZM226.04 30.88C226.211 31.5627 226.296 32.416 226.296 33.44C226.296 34.4213 226.211 35.2747 226.04 36H220.92C220.749 35.2747 220.664 34.4213 220.664 33.44C220.664 32.416 220.749 31.5627 220.92 30.88H218.36C218.189 30.1547 218.104 29.3013 218.104 28.32C218.104 27.296 218.189 26.4427 218.36 25.76H210.68C210.851 26.4427 210.936 27.296 210.936 28.32C210.936 29.3013 210.851 30.1547 210.68 30.88H218.36C218.531 31.5627 218.616 32.416 218.616 33.44C218.616 34.4213 218.531 35.2747 218.36 36H208.12C207.949 35.2747 207.864 34.4213 207.864 33.44C207.864 32.416 207.949 31.5627 208.12 30.88H205.56C205.389 30.1547 205.304 29.3013 205.304 28.32C205.304 27.296 205.389 26.4427 205.56 25.76H208.12C207.949 25.0347 207.864 24.1813 207.864 23.2C207.864 22.176 207.949 21.3227 208.12 20.64H218.36C218.189 19.9147 218.104 19.0613 218.104 18.08C218.104 17.056 218.189 16.2027 218.36 15.52H209.4C209.229 14.7947 209.144 13.9413 209.144 12.96C209.144 11.936 209.229 11.0827 209.4 10.4H220.92C221.091 11.0827 221.176 11.936 221.176 12.96C221.176 13.9413 221.091 14.7947 220.92 15.52H223.48C223.651 16.2027 223.736 17.056 223.736 18.08C223.736 19.0613 223.651 19.9147 223.48 20.64C223.651 21.3227 223.736 22.176 223.736 23.2C223.736 24.1813 223.651 25.0347 223.48 25.76C223.651 26.4427 223.736 27.296 223.736 28.32C223.736 29.3013 223.651 30.1547 223.48 30.88H226.04ZM251.665 15.52C251.836 16.2027 251.921 17.056 251.921 18.08C251.921 19.0613 251.836 19.9147 251.665 20.64H246.545C246.374 19.9147 246.289 19.0613 246.289 18.08C246.289 17.056 246.374 16.2027 246.545 15.52H242.065C242.236 16.2027 242.321 17.056 242.321 18.08C242.321 19.0613 242.236 19.9147 242.065 20.64H240.145C240.316 21.3227 240.401 22.176 240.401 23.2C240.401 24.1813 240.316 25.0347 240.145 25.76C240.316 26.4427 240.401 27.296 240.401 28.32C240.401 29.3013 240.316 30.1547 240.145 30.88H243.985C244.156 31.5627 244.241 32.416 244.241 33.44C244.241 34.4213 244.156 35.2747 243.985 36H231.185C231.014 35.2747 230.929 34.4213 230.929 33.44C230.929 32.416 231.014 31.5627 231.185 30.88H235.025C234.854 30.1547 234.769 29.3013 234.769 28.32C234.769 27.296 234.854 26.4427 235.025 25.76C234.854 25.0347 234.769 24.1813 234.769 23.2C234.769 22.176 234.854 21.3227 235.025 20.64C234.854 19.9147 234.769 19.0613 234.769 18.08C234.769 17.056 234.854 16.2027 235.025 15.52H231.185C231.014 14.7947 230.929 13.9413 230.929 12.96C230.929 11.936 231.014 11.0827 231.185 10.4H237.585C237.756 11.0827 237.841 11.936 237.841 12.96C237.841 13.9413 237.756 14.7947 237.585 15.52H240.145C239.974 14.7947 239.889 13.9413 239.889 12.96C239.889 11.936 239.974 11.0827 240.145 10.4H249.745C249.916 11.0827 250.001 11.936 250.001 12.96C250.001 13.9413 249.916 14.7947 249.745 15.52H251.665ZM277.29 30.88C277.461 31.5627 277.546 32.416 277.546 33.44C277.546 34.4213 277.461 35.2747 277.29 36H272.17C271.999 35.2747 271.914 34.4213 271.914 33.44C271.914 32.416 271.999 31.5627 272.17 30.88H269.61C269.439 30.1547 269.354 29.3013 269.354 28.32C269.354 27.296 269.439 26.4427 269.61 25.76H261.93C262.101 26.4427 262.186 27.296 262.186 28.32C262.186 29.3013 262.101 30.1547 261.93 30.88H269.61C269.781 31.5627 269.866 32.416 269.866 33.44C269.866 34.4213 269.781 35.2747 269.61 36H259.37C259.199 35.2747 259.114 34.4213 259.114 33.44C259.114 32.416 259.199 31.5627 259.37 30.88H256.81C256.639 30.1547 256.554 29.3013 256.554 28.32C256.554 27.296 256.639 26.4427 256.81 25.76H259.37C259.199 25.0347 259.114 24.1813 259.114 23.2C259.114 22.176 259.199 21.3227 259.37 20.64H269.61C269.439 19.9147 269.354 19.0613 269.354 18.08C269.354 17.056 269.439 16.2027 269.61 15.52H260.65C260.479 14.7947 260.394 13.9413 260.394 12.96C260.394 11.936 260.479 11.0827 260.65 10.4H272.17C272.341 11.0827 272.426 11.936 272.426 12.96C272.426 13.9413 272.341 14.7947 272.17 15.52H274.73C274.901 16.2027 274.986 17.056 274.986 18.08C274.986 19.0613 274.901 19.9147 274.73 20.64C274.901 21.3227 274.986 22.176 274.986 23.2C274.986 24.1813 274.901 25.0347 274.73 25.76C274.901 26.4427 274.986 27.296 274.986 28.32C274.986 29.3013 274.901 30.1547 274.73 30.88H277.29ZM285.891 12.96C285.891 13.9413 285.806 14.7947 285.635 15.52H287.555C287.726 16.2027 287.811 17.056 287.811 18.08C287.811 19.0613 287.726 19.9147 287.555 20.64C287.726 21.3227 287.811 22.176 287.811 23.2C287.811 24.1813 287.726 25.0347 287.555 25.76C287.726 26.4427 287.811 27.296 287.811 28.32C287.811 29.3013 287.726 30.1547 287.555 30.88C287.726 31.5627 287.811 32.416 287.811 33.44C287.811 34.4213 287.726 35.2747 287.555 36H282.435C282.264 35.2747 282.179 34.4213 282.179 33.44C282.179 32.416 282.264 31.5627 282.435 30.88C282.264 30.1547 282.179 29.3013 282.179 28.32C282.179 27.296 282.264 26.4427 282.435 25.76C282.264 25.0347 282.179 24.1813 282.179 23.2C282.179 22.176 282.264 21.3227 282.435 20.64C282.264 19.9147 282.179 19.0613 282.179 18.08C282.179 17.056 282.264 16.2027 282.435 15.52C282.264 14.7947 282.179 13.9413 282.179 12.96C282.179 11.936 282.264 11.0827 282.435 10.4H285.635C285.806 11.0827 285.891 11.936 285.891 12.96ZM292.931 12.96C292.931 13.9413 292.846 14.7947 292.675 15.52H294.595C294.766 16.2027 294.851 17.056 294.851 18.08C294.851 19.0613 294.766 19.9147 294.595 20.64C294.766 21.3227 294.851 22.176 294.851 23.2C294.851 24.1813 294.766 25.0347 294.595 25.76C294.766 26.4427 294.851 27.296 294.851 28.32C294.851 29.3013 294.766 30.1547 294.595 30.88C294.766 31.5627 294.851 32.416 294.851 33.44C294.851 34.4213 294.766 35.2747 294.595 36H290.755C290.584 35.2747 290.499 34.4213 290.499 33.44C290.499 32.416 290.584 31.5627 290.755 30.88C290.584 30.1547 290.499 29.3013 290.499 28.32C290.499 27.296 290.584 26.4427 290.755 25.76C290.584 25.0347 290.499 24.1813 290.499 23.2C290.499 22.176 290.584 21.3227 290.755 20.64C290.584 19.9147 290.499 19.0613 290.499 18.08C290.499 17.056 290.584 16.2027 290.755 15.52H287.555C287.384 14.7947 287.299 13.9413 287.299 12.96C287.299 11.936 287.384 11.0827 287.555 10.4H292.675C292.846 11.0827 292.931 11.936 292.931 12.96ZM302.915 20.64C303.086 21.3227 303.171 22.176 303.171 23.2C303.171 24.1813 303.086 25.0347 302.915 25.76C303.086 26.4427 303.171 27.296 303.171 28.32C303.171 29.3013 303.086 30.1547 302.915 30.88C303.086 31.5627 303.171 32.416 303.171 33.44C303.171 34.4213 303.086 35.2747 302.915 36H297.795C297.624 35.2747 297.539 34.4213 297.539 33.44C297.539 32.416 297.624 31.5627 297.795 30.88C297.624 30.1547 297.539 29.3013 297.539 28.32C297.539 27.296 297.624 26.4427 297.795 25.76C297.624 25.0347 297.539 24.1813 297.539 23.2C297.539 22.176 297.624 21.3227 297.795 20.64C297.624 19.9147 297.539 19.0613 297.539 18.08C297.539 17.056 297.624 16.2027 297.795 15.52H294.595C294.424 14.7947 294.339 13.9413 294.339 12.96C294.339 11.936 294.424 11.0827 294.595 10.4H300.355C300.526 11.0827 300.611 11.936 300.611 12.96C300.611 13.9413 300.526 14.7947 300.355 15.52H302.915C303.086 16.2027 303.171 17.056 303.171 18.08C303.171 19.0613 303.086 19.9147 302.915 20.64ZM328.54 25.76C328.711 26.4427 328.796 27.296 328.796 28.32C328.796 29.3013 328.711 30.1547 328.54 30.88H325.98C326.151 31.5627 326.236 32.416 326.236 33.44C326.236 34.4213 326.151 35.2747 325.98 36H313.18C313.009 35.2747 312.924 34.4213 312.924 33.44C312.924 32.416 313.009 31.5627 313.18 30.88H310.62C310.449 30.1547 310.364 29.3013 310.364 28.32C310.364 27.296 310.449 26.4427 310.62 25.76H308.06C307.889 25.0347 307.804 24.1813 307.804 23.2C307.804 22.176 307.889 21.3227 308.06 20.64H310.62C310.449 19.9147 310.364 19.0613 310.364 18.08C310.364 17.056 310.449 16.2027 310.62 15.52H313.18C313.009 14.7947 312.924 13.9413 312.924 12.96C312.924 11.936 313.009 11.0827 313.18 10.4H325.98C326.151 11.0827 326.236 11.936 326.236 12.96C326.236 13.9413 326.151 14.7947 325.98 15.52H328.54C328.711 16.2027 328.796 17.056 328.796 18.08C328.796 19.0613 328.711 19.9147 328.54 20.64H323.42C323.249 19.9147 323.164 19.0613 323.164 18.08C323.164 17.056 323.249 16.2027 323.42 15.52H315.74C315.911 16.2027 315.996 17.056 315.996 18.08C315.996 19.0613 315.911 19.9147 315.74 20.64H313.18C313.351 21.3227 313.436 22.176 313.436 23.2C313.436 24.1813 313.351 25.0347 313.18 25.76H315.74C315.911 26.4427 315.996 27.296 315.996 28.32C315.996 29.3013 315.911 30.1547 315.74 30.88H323.42C323.249 30.1547 323.164 29.3013 323.164 28.32C323.164 27.296 323.249 26.4427 323.42 25.76H328.54ZM339.061 12.96C339.061 13.9413 338.976 14.7947 338.805 15.52H340.725C340.896 16.2027 340.981 17.056 340.981 18.08C340.981 19.0613 340.896 19.9147 340.725 20.64H338.805C338.976 21.3227 339.061 22.176 339.061 23.2C339.061 24.1813 338.976 25.0347 338.805 25.76C338.976 26.4427 339.061 27.296 339.061 28.32C339.061 29.3013 338.976 30.1547 338.805 30.88C338.976 31.5627 339.061 32.416 339.061 33.44C339.061 34.4213 338.976 35.2747 338.805 36H333.685C333.514 35.2747 333.429 34.4213 333.429 33.44C333.429 32.416 333.514 31.5627 333.685 30.88C333.514 30.1547 333.429 29.3013 333.429 28.32C333.429 27.296 333.514 26.4427 333.685 25.76C333.514 25.0347 333.429 24.1813 333.429 23.2C333.429 22.176 333.514 21.3227 333.685 20.64C333.514 19.9147 333.429 19.0613 333.429 18.08C333.429 17.056 333.514 16.2027 333.685 15.52C333.514 14.7947 333.429 13.9413 333.429 12.96C333.429 11.936 333.514 11.0827 333.685 10.4C333.514 9.67467 333.429 8.82133 333.429 7.84C333.429 6.816 333.514 5.96267 333.685 5.28C333.514 4.55467 333.429 3.70133 333.429 2.72C333.429 1.696 333.514 0.842665 333.685 0.16H338.805C338.976 0.842665 339.061 1.696 339.061 2.72C339.061 3.70133 338.976 4.55467 338.805 5.28C338.976 5.96267 339.061 6.816 339.061 7.84C339.061 8.82133 338.976 9.67467 338.805 10.4C338.976 11.0827 339.061 11.936 339.061 12.96ZM354.165 20.64C354.336 21.3227 354.421 22.176 354.421 23.2C354.421 24.1813 354.336 25.0347 354.165 25.76C354.336 26.4427 354.421 27.296 354.421 28.32C354.421 29.3013 354.336 30.1547 354.165 30.88C354.336 31.5627 354.421 32.416 354.421 33.44C354.421 34.4213 354.336 35.2747 354.165 36H349.045C348.874 35.2747 348.789 34.4213 348.789 33.44C348.789 32.416 348.874 31.5627 349.045 30.88C348.874 30.1547 348.789 29.3013 348.789 28.32C348.789 27.296 348.874 26.4427 349.045 25.76C348.874 25.0347 348.789 24.1813 348.789 23.2C348.789 22.176 348.874 21.3227 349.045 20.64C348.874 19.9147 348.789 19.0613 348.789 18.08C348.789 17.056 348.874 16.2027 349.045 15.52H340.725C340.554 14.7947 340.469 13.9413 340.469 12.96C340.469 11.936 340.554 11.0827 340.725 10.4H350.965C351.136 11.0827 351.221 11.936 351.221 12.96C351.221 13.9413 351.136 14.7947 350.965 15.52H354.165C354.336 16.2027 354.421 17.056 354.421 18.08C354.421 19.0613 354.336 19.9147 354.165 20.64ZM379.79 30.88C379.961 31.5627 380.046 32.416 380.046 33.44C380.046 34.4213 379.961 35.2747 379.79 36H374.67C374.499 35.2747 374.414 34.4213 374.414 33.44C374.414 32.416 374.499 31.5627 374.67 30.88H372.11C371.939 30.1547 371.854 29.3013 371.854 28.32C371.854 27.296 371.939 26.4427 372.11 25.76H364.43C364.601 26.4427 364.686 27.296 364.686 28.32C364.686 29.3013 364.601 30.1547 364.43 30.88H372.11C372.281 31.5627 372.366 32.416 372.366 33.44C372.366 34.4213 372.281 35.2747 372.11 36H361.87C361.699 35.2747 361.614 34.4213 361.614 33.44C361.614 32.416 361.699 31.5627 361.87 30.88H359.31C359.139 30.1547 359.054 29.3013 359.054 28.32C359.054 27.296 359.139 26.4427 359.31 25.76H361.87C361.699 25.0347 361.614 24.1813 361.614 23.2C361.614 22.176 361.699 21.3227 361.87 20.64H372.11C371.939 19.9147 371.854 19.0613 371.854 18.08C371.854 17.056 371.939 16.2027 372.11 15.52H363.15C362.979 14.7947 362.894 13.9413 362.894 12.96C362.894 11.936 362.979 11.0827 363.15 10.4H374.67C374.841 11.0827 374.926 11.936 374.926 12.96C374.926 13.9413 374.841 14.7947 374.67 15.52H377.23C377.401 16.2027 377.486 17.056 377.486 18.08C377.486 19.0613 377.401 19.9147 377.23 20.64C377.401 21.3227 377.486 22.176 377.486 23.2C377.486 24.1813 377.401 25.0347 377.23 25.76C377.401 26.4427 377.486 27.296 377.486 28.32C377.486 29.3013 377.401 30.1547 377.23 30.88H379.79ZM389.671 12.96C389.671 13.9413 389.586 14.7947 389.415 15.52H391.975C392.146 16.2027 392.231 17.056 392.231 18.08C392.231 19.0613 392.146 19.9147 391.975 20.64H390.055C390.226 21.3227 390.311 22.176 390.311 23.2C390.311 24.1813 390.226 25.0347 390.055 25.76C390.226 26.4427 390.311 27.296 390.311 28.32C390.311 29.3013 390.226 30.1547 390.055 30.88C390.226 31.5627 390.311 32.416 390.311 33.44C390.311 34.4213 390.226 35.2747 390.055 36H384.935C384.764 35.2747 384.679 34.4213 384.679 33.44C384.679 32.416 384.764 31.5627 384.935 30.88C384.764 30.1547 384.679 29.3013 384.679 28.32C384.679 27.296 384.764 26.4427 384.935 25.76C384.764 25.0347 384.679 24.1813 384.679 23.2C384.679 22.176 384.764 21.3227 384.935 20.64C384.764 19.9147 384.679 19.0613 384.679 18.08C384.679 17.056 384.764 16.2027 384.935 15.52C384.764 14.7947 384.679 13.9413 384.679 12.96C384.679 11.936 384.764 11.0827 384.935 10.4H389.415C389.586 11.0827 389.671 11.936 389.671 12.96ZM405.415 20.64C405.586 21.3227 405.671 22.176 405.671 23.2C405.671 24.1813 405.586 25.0347 405.415 25.76C405.586 26.4427 405.671 27.296 405.671 28.32C405.671 29.3013 405.586 30.1547 405.415 30.88C405.586 31.5627 405.671 32.416 405.671 33.44C405.671 34.4213 405.586 35.2747 405.415 36H400.295C400.124 35.2747 400.039 34.4213 400.039 33.44C400.039 32.416 400.124 31.5627 400.295 30.88C400.124 30.1547 400.039 29.3013 400.039 28.32C400.039 27.296 400.124 26.4427 400.295 25.76C400.124 25.0347 400.039 24.1813 400.039 23.2C400.039 22.176 400.124 21.3227 400.295 20.64C400.124 19.9147 400.039 19.0613 400.039 18.08C400.039 17.056 400.124 16.2027 400.295 15.52H391.975C391.804 14.7947 391.719 13.9413 391.719 12.96C391.719 11.936 391.804 11.0827 391.975 10.4H402.215C402.386 11.0827 402.471 11.936 402.471 12.96C402.471 13.9413 402.386 14.7947 402.215 15.52H405.415C405.586 16.2027 405.671 17.056 405.671 18.08C405.671 19.0613 405.586 19.9147 405.415 20.64ZM431.04 5.28C431.211 5.96267 431.296 6.816 431.296 7.84C431.296 8.82133 431.211 9.67467 431.04 10.4C431.211 11.0827 431.296 11.936 431.296 12.96C431.296 13.9413 431.211 14.7947 431.04 15.52C431.211 16.2027 431.296 17.056 431.296 18.08C431.296 19.0613 431.211 19.9147 431.04 20.64C431.211 21.3227 431.296 22.176 431.296 23.2C431.296 24.1813 431.211 25.0347 431.04 25.76C431.211 26.4427 431.296 27.296 431.296 28.32C431.296 29.3013 431.211 30.1547 431.04 30.88C431.211 31.5627 431.296 32.416 431.296 33.44C431.296 34.4213 431.211 35.2747 431.04 36H425.92C425.749 35.2747 425.664 34.4213 425.664 33.44C425.664 32.416 425.749 31.5627 425.92 30.88H424C423.829 30.1547 423.744 29.3013 423.744 28.32C423.744 27.296 423.829 26.4427 424 25.76H425.92C425.749 25.0347 425.664 24.1813 425.664 23.2C425.664 22.176 425.749 21.3227 425.92 20.64H424C423.829 19.9147 423.744 19.0613 423.744 18.08C423.744 17.056 423.829 16.2027 424 15.52H425.92C425.749 14.7947 425.664 13.9413 425.664 12.96C425.664 11.936 425.749 11.0827 425.92 10.4C425.749 9.67467 425.664 8.82133 425.664 7.84C425.664 6.816 425.749 5.96267 425.92 5.28C425.749 4.55467 425.664 3.70133 425.664 2.72C425.664 1.696 425.749 0.842665 425.92 0.16H431.04C431.211 0.842665 431.296 1.696 431.296 2.72C431.296 3.70133 431.211 4.55467 431.04 5.28ZM422.976 12.96C422.976 13.9413 422.891 14.7947 422.72 15.52H416.32C416.491 16.2027 416.576 17.056 416.576 18.08C416.576 19.0613 416.491 19.9147 416.32 20.64H414.4C414.571 21.3227 414.656 22.176 414.656 23.2C414.656 24.1813 414.571 25.0347 414.4 25.76H416.32C416.491 26.4427 416.576 27.296 416.576 28.32C416.576 29.3013 416.491 30.1547 416.32 30.88H422.72C422.891 31.5627 422.976 32.416 422.976 33.44C422.976 34.4213 422.891 35.2747 422.72 36H415.68C415.509 35.2747 415.424 34.4213 415.424 33.44C415.424 32.416 415.509 31.5627 415.68 30.88H412.48C412.309 30.1547 412.224 29.3013 412.224 28.32C412.224 27.296 412.309 26.4427 412.48 25.76H410.56C410.389 25.0347 410.304 24.1813 410.304 23.2C410.304 22.176 410.389 21.3227 410.56 20.64H412.48C412.309 19.9147 412.224 19.0613 412.224 18.08C412.224 17.056 412.309 16.2027 412.48 15.52H415.68C415.509 14.7947 415.424 13.9413 415.424 12.96C415.424 11.936 415.509 11.0827 415.68 10.4H422.72C422.891 11.0827 422.976 11.936 422.976 12.96ZM456.665 30.88C456.836 31.5627 456.921 32.416 456.921 33.44C456.921 34.4213 456.836 35.2747 456.665 36H451.545C451.374 35.2747 451.289 34.4213 451.289 33.44C451.289 32.416 451.374 31.5627 451.545 30.88H448.985C448.814 30.1547 448.729 29.3013 448.729 28.32C448.729 27.296 448.814 26.4427 448.985 25.76H441.305C441.476 26.4427 441.561 27.296 441.561 28.32C441.561 29.3013 441.476 30.1547 441.305 30.88H448.985C449.156 31.5627 449.241 32.416 449.241 33.44C449.241 34.4213 449.156 35.2747 448.985 36H438.745C438.574 35.2747 438.489 34.4213 438.489 33.44C438.489 32.416 438.574 31.5627 438.745 30.88H436.185C436.014 30.1547 435.929 29.3013 435.929 28.32C435.929 27.296 436.014 26.4427 436.185 25.76H438.745C438.574 25.0347 438.489 24.1813 438.489 23.2C438.489 22.176 438.574 21.3227 438.745 20.64H448.985C448.814 19.9147 448.729 19.0613 448.729 18.08C448.729 17.056 448.814 16.2027 448.985 15.52H440.025C439.854 14.7947 439.769 13.9413 439.769 12.96C439.769 11.936 439.854 11.0827 440.025 10.4H451.545C451.716 11.0827 451.801 11.936 451.801 12.96C451.801 13.9413 451.716 14.7947 451.545 15.52H454.105C454.276 16.2027 454.361 17.056 454.361 18.08C454.361 19.0613 454.276 19.9147 454.105 20.64C454.276 21.3227 454.361 22.176 454.361 23.2C454.361 24.1813 454.276 25.0347 454.105 25.76C454.276 26.4427 454.361 27.296 454.361 28.32C454.361 29.3013 454.276 30.1547 454.105 30.88H456.665ZM466.546 12.96C466.546 13.9413 466.461 14.7947 466.29 15.52H468.85C469.021 16.2027 469.106 17.056 469.106 18.08C469.106 19.0613 469.021 19.9147 468.85 20.64H466.93C467.101 21.3227 467.186 22.176 467.186 23.2C467.186 24.1813 467.101 25.0347 466.93 25.76C467.101 26.4427 467.186 27.296 467.186 28.32C467.186 29.3013 467.101 30.1547 466.93 30.88C467.101 31.5627 467.186 32.416 467.186 33.44C467.186 34.4213 467.101 35.2747 466.93 36H461.81C461.639 35.2747 461.554 34.4213 461.554 33.44C461.554 32.416 461.639 31.5627 461.81 30.88C461.639 30.1547 461.554 29.3013 461.554 28.32C461.554 27.296 461.639 26.4427 461.81 25.76C461.639 25.0347 461.554 24.1813 461.554 23.2C461.554 22.176 461.639 21.3227 461.81 20.64C461.639 19.9147 461.554 19.0613 461.554 18.08C461.554 17.056 461.639 16.2027 461.81 15.52C461.639 14.7947 461.554 13.9413 461.554 12.96C461.554 11.936 461.639 11.0827 461.81 10.4H466.29C466.461 11.0827 466.546 11.936 466.546 12.96ZM482.29 20.64C482.461 21.3227 482.546 22.176 482.546 23.2C482.546 24.1813 482.461 25.0347 482.29 25.76C482.461 26.4427 482.546 27.296 482.546 28.32C482.546 29.3013 482.461 30.1547 482.29 30.88C482.461 31.5627 482.546 32.416 482.546 33.44C482.546 34.4213 482.461 35.2747 482.29 36H477.17C476.999 35.2747 476.914 34.4213 476.914 33.44C476.914 32.416 476.999 31.5627 477.17 30.88C476.999 30.1547 476.914 29.3013 476.914 28.32C476.914 27.296 476.999 26.4427 477.17 25.76C476.999 25.0347 476.914 24.1813 476.914 23.2C476.914 22.176 476.999 21.3227 477.17 20.64C476.999 19.9147 476.914 19.0613 476.914 18.08C476.914 17.056 476.999 16.2027 477.17 15.52H468.85C468.679 14.7947 468.594 13.9413 468.594 12.96C468.594 11.936 468.679 11.0827 468.85 10.4H479.09C479.261 11.0827 479.346 11.936 479.346 12.96C479.346 13.9413 479.261 14.7947 479.09 15.52H482.29C482.461 16.2027 482.546 17.056 482.546 18.08C482.546 19.0613 482.461 19.9147 482.29 20.64ZM495.115 5.28C494.944 4.55467 494.859 3.70133 494.859 2.72C494.859 1.696 494.944 0.842665 495.115 0.16H500.235C500.406 0.842665 500.491 1.696 500.491 2.72C500.491 3.70133 500.406 4.55467 500.235 5.28H495.115ZM505.355 30.88C505.526 31.5627 505.611 32.416 505.611 33.44C505.611 34.4213 505.526 35.2747 505.355 36H489.995C489.824 35.2747 489.739 34.4213 489.739 33.44C489.739 32.416 489.824 31.5627 489.995 30.88H495.115C494.944 30.1547 494.859 29.3013 494.859 28.32C494.859 27.296 494.944 26.4427 495.115 25.76C494.944 25.0347 494.859 24.1813 494.859 23.2C494.859 22.176 494.944 21.3227 495.115 20.64C494.944 19.9147 494.859 19.0613 494.859 18.08C494.859 17.056 494.944 16.2027 495.115 15.52H491.275C491.104 14.7947 491.019 13.9413 491.019 12.96C491.019 11.936 491.104 11.0827 491.275 10.4H500.235C500.406 11.0827 500.491 11.936 500.491 12.96C500.491 13.9413 500.406 14.7947 500.235 15.52C500.406 16.2027 500.491 17.056 500.491 18.08C500.491 19.0613 500.406 19.9147 500.235 20.64C500.406 21.3227 500.491 22.176 500.491 23.2C500.491 24.1813 500.406 25.0347 500.235 25.76C500.406 26.4427 500.491 27.296 500.491 28.32C500.491 29.3013 500.406 30.1547 500.235 30.88H505.355Z" fill="#DF557E"/>
</svg>
